<?xml version="1.0" standalone="no"?>
<!DOCTYPE svg PUBLIC "-//W3C//DTD SVG 20010904//EN"
 "http://www.w3.org/TR/2001/REC-SVG-20010904/DTD/svg10.dtd">
<svg version="1.0" xmlns="http://www.w3.org/2000/svg"
 width="512.000000pt" height="512.000000pt" viewBox="0 0 512.000000 512.000000"
 preserveAspectRatio="xMidYMid meet">

<g transform="translate(0.000000,512.000000) scale(0.100000,-0.100000)"
fill="#000000" stroke="none">
<path d="M2259 4785 c-143 -23 -295 -67 -379 -110 -24 -13 -33 -12 -81 7 -74
29 -241 29 -352 -1 -145 -38 -208 -83 -338 -236 -122 -146 -226 -219 -483
-344 -181 -88 -250 -149 -308 -271 -44 -93 -58 -156 -58 -268 1 -222 85 -385
343 -662 141 -151 174 -211 219 -401 34 -146 56 -187 111 -208 105 -40 220 82
291 307 14 46 26 95 26 110 0 39 14 16 35 -58 69 -244 203 -535 291 -629 l54
-59 0 -321 0 -322 27 -57 c34 -73 145 -185 238 -240 77 -45 187 -92 278 -117
41 -12 55 -20 49 -28 -26 -33 -44 -122 -40 -196 8 -142 89 -264 216 -326 112
-56 269 -45 376 26 143 95 207 292 147 448 -11 30 -19 56 -17 59 2 2 53 20
114 41 60 20 145 57 188 82 94 53 218 171 254 244 25 50 25 52 30 386 4 301 7
338 23 360 130 179 230 401 313 693 l28 100 13 -77 c35 -207 141 -395 240
-428 27 -9 45 -9 74 0 65 20 77 43 128 256 36 147 74 213 207 355 253 271 330
414 341 635 9 182 -39 319 -152 432 -53 53 -84 72 -229 143 -258 126 -326 178
-522 396 -93 103 -156 142 -281 175 -112 30 -266 30 -351 0 l-63 -22 -87 35
c-201 80 -357 106 -632 105 -108 -1 -233 -7 -281 -14z m201 -275 c0 -84 2 -92
28 -121 24 -26 36 -32 72 -32 36 0 48 6 72 32 26 29 28 37 28 116 0 46 4 86 8
89 4 2 27 2 50 -1 l42 -6 0 -46 c0 -93 69 -149 145 -117 36 15 65 62 65 105 0
18 4 18 38 9 20 -5 75 -27 120 -49 357 -166 542 -512 583 -1087 12 -180 7
-259 -27 -427 -24 -120 -86 -339 -122 -429 l-19 -48 -36 76 c-41 87 -149 250
-181 271 -36 26 -94 19 -127 -14 -45 -45 -41 -91 17 -170 112 -154 146 -239
147 -366 1 -110 -26 -208 -78 -278 -42 -56 -136 -128 -200 -153 -40 -15 -53
-15 -102 -4 -85 19 -200 83 -265 148 l-58 56 0 62 0 61 57 38 c153 102 204
181 210 330 5 102 -10 139 -69 175 -52 32 -171 53 -293 54 -177 0 -302 -34
-348 -96 -45 -60 -28 -238 31 -323 31 -44 142 -138 185 -156 25 -11 27 -15 27
-76 0 -79 -13 -101 -109 -178 -159 -129 -272 -138 -413 -32 -119 90 -167 182
-175 338 -8 148 22 229 148 406 67 93 78 126 55 171 -20 39 -44 52 -94 52 -50
0 -72 -22 -167 -165 -69 -104 -125 -216 -125 -250 0 -44 -21 1 -68 143 -108
330 -137 491 -128 712 18 441 121 755 315 963 178 188 398 279 744 306 15 1
17 -9 17 -89z m-912 -78 c-200 -213 -325 -540 -358 -942 -8 -97 -25 -192 -61
-340 -27 -113 -58 -263 -69 -335 -23 -143 -40 -210 -50 -198 -4 4 -15 32 -24
62 -45 140 -93 212 -270 401 -145 155 -213 264 -242 387 -30 128 -2 258 76
346 23 27 79 61 201 121 256 128 378 217 505 369 86 102 109 124 157 148 44
23 131 47 171 48 28 1 27 -1 -36 -67z m2114 38 c75 -28 103 -51 193 -157 137
-163 254 -249 514 -379 122 -60 178 -94 201 -121 78 -88 106 -218 76 -346 -29
-123 -97 -232 -242 -387 -177 -189 -225 -261 -270 -401 -9 -30 -20 -58 -24
-62 -10 -11 -36 89 -50 189 -11 81 -35 176 -103 409 -20 69 -38 156 -42 205
-36 467 -155 791 -375 1024 l-55 59 61 -6 c34 -4 86 -16 116 -27z m-886 -2751
c44 -21 86 -39 92 -39 43 0 -35 -85 -114 -124 -118 -59 -265 -58 -390 4 -56
27 -114 78 -114 99 0 4 17 13 38 19 47 14 137 72 217 139 l59 50 66 -54 c36
-30 101 -72 146 -94z m-780 -234 c103 -70 214 -121 334 -152 136 -36 324 -36
460 0 159 42 325 130 458 243 l42 37 0 -125 c0 -123 -1 -126 -30 -166 -89
-123 -318 -231 -527 -249 l-73 -6 0 45 c0 49 -23 82 -68 99 -63 24 -132 -30
-132 -103 l0 -41 -72 6 c-210 18 -439 126 -528 249 -29 40 -30 43 -30 166 l0
125 43 -37 c23 -20 78 -61 123 -91z m680 -648 c15 -11 35 -39 45 -61 59 -130
-46 -274 -184 -252 -147 24 -206 197 -102 300 34 34 35 34 125 34 76 0 94 -3
116 -21z"/>
<path d="M2160 4123 c-80 -29 -89 -139 -15 -187 37 -24 65 -94 72 -174 9 -115
-56 -286 -212 -558 -53 -93 -99 -180 -102 -195 -6 -32 19 -84 48 -100 27 -14
81 -14 107 0 11 6 70 98 130 203 107 188 185 363 217 483 29 114 14 290 -35
385 -52 102 -147 166 -210 143z"/>
<path d="M2869 4110 c-97 -51 -168 -211 -169 -377 0 -51 4 -66 25 -91 32 -38
72 -48 116 -29 44 18 55 42 67 149 13 100 28 136 83 188 53 50 54 97 5 146
-39 39 -72 43 -127 14z"/>
<path d="M1752 3693 c-56 -27 -86 -76 -90 -147 -4 -76 24 -129 83 -163 84 -48
196 -19 243 62 18 33 22 51 20 101 -4 72 -35 121 -91 148 -44 20 -122 20 -165
-1z"/>
<path d="M3193 3685 c-93 -56 -111 -188 -35 -268 39 -41 74 -57 127 -57 183 0
248 225 96 327 -48 33 -131 32 -188 -2z"/>
<path d="M2799 3541 c-39 -39 -38 -78 5 -179 33 -79 234 -441 264 -474 21 -24
76 -33 113 -18 33 14 59 55 59 94 0 14 -48 110 -107 213 -59 104 -122 224
-141 268 -41 98 -68 125 -123 125 -31 0 -47 -7 -70 -29z"/>
</g>
</svg>
